<svg height="512pt" viewBox="-24 0 512 512" width="512pt" xmlns="http://www.w3.org/2000/svg"><path d="m412.652344 327.589844h-360.4375c-28.789063 0-52.214844 23.425781-52.214844 52.214844v79.980468c0 28.789063 23.425781 52.214844 52.214844 52.214844h360.4375c28.792968 0 52.21875-23.425781 52.21875-52.214844v-79.980468c0-28.789063-23.425782-52.214844-52.21875-52.214844zm-289.710938 101.183594-3.914062 1.273437 2.421875 3.328125c4.867187 6.703125 3.382812 16.082031-3.320313 20.953125-2.660156 1.933594-5.746094 2.863281-8.804687 2.863281-4.636719 0-9.210938-2.140625-12.144531-6.183594l-2.421876-3.328124-2.417968 3.328124c-2.933594 4.042969-7.507813 6.183594-12.148438 6.183594-3.054687 0-6.140625-.929687-8.804687-2.863281-6.699219-4.871094-8.1875-14.25-3.316407-20.953125l2.417969-3.328125-3.914062-1.273437c-7.878907-2.558594-12.1875-11.023438-9.628907-18.902344 2.558594-7.878906 11.019532-12.191406 18.902344-9.628906l3.914063 1.273437v-4.117187c0-8.285157 6.714843-15 15-15 8.28125 0 15 6.714843 15 15v4.117187l3.914062-1.273437c7.878907-2.558594 16.339844 1.75 18.898438 9.628906 2.558593 7.878906-1.753907 16.34375-9.632813 18.902344zm91.785156 0-3.914062 1.273437 2.417969 3.328125c4.871093 6.703125 3.386719 16.082031-3.316407 20.953125-2.660156 1.933594-5.75 2.863281-8.804687 2.863281-4.640625 0-9.210937-2.140625-12.148437-6.183594l-2.417969-3.328124-2.417969 3.328124c-2.9375 4.042969-7.511719 6.183594-12.148438 6.183594-3.054687 0-6.140624-.929687-8.804687-2.863281-6.703125-4.871094-8.1875-14.25-3.316406-20.953125l2.417969-3.328125-3.914063-1.273437c-7.878906-2.558594-12.191406-11.023438-9.628906-18.902344 2.558593-7.878906 11.019531-12.191406 18.898437-9.628906l3.914063 1.273437v-4.117187c0-8.285157 6.71875-15 15-15 8.285156 0 15 6.714843 15 15v4.117187l3.914062-1.273437c7.882813-2.558594 16.34375 1.75 18.902344 9.628906s-1.753906 16.34375-9.632813 18.902344zm91.785157 0-3.914063 1.273437 2.417969 3.328125c4.871094 6.703125 3.386719 16.082031-3.316406 20.953125-2.664063 1.933594-5.75 2.863281-8.804688 2.863281-4.640625 0-9.210937-2.140625-12.148437-6.183594l-2.417969-3.328124-2.417969 3.328124c-2.9375 4.042969-7.511718 6.183594-12.148437 6.183594-3.058594 0-6.140625-.929687-8.804688-2.863281-6.703125-4.871094-8.1875-14.25-3.316406-20.953125l2.417969-3.328125-3.914063-1.273437c-7.878906-2.558594-12.191406-11.023438-9.628906-18.902344 2.558594-7.878906 11.019531-12.191406 18.898437-9.628906l3.914063 1.273437v-4.117187c0-8.285157 6.71875-15 15-15 8.285156 0 15 6.714843 15 15v4.117187l3.914063-1.273437c7.878906-2.558594 16.34375 1.75 18.902343 9.628906 2.558594 7.878906-1.753906 16.34375-9.632812 18.902344zm91.785156 0-3.914063 1.273437 2.417969 3.328125c4.871094 6.703125 3.382813 16.082031-3.316406 20.953125-2.664063 1.933594-5.75 2.863281-8.804687 2.863281-4.640626 0-9.214844-2.140625-12.148438-6.183594l-2.417969-3.328124-2.421875 3.328124c-2.933594 4.042969-7.507812 6.183594-12.144531 6.183594-3.058594 0-6.144531-.929687-8.804687-2.863281-6.703126-4.871094-8.1875-14.25-3.320313-20.953125l2.421875-3.328125-3.914062-1.273437c-7.878907-2.558594-12.191407-11.023438-9.632813-18.902344 2.5625-7.878906 11.023437-12.191406 18.902344-9.628906l3.914062 1.273437v-4.117187c0-8.285157 6.714844-15 15-15 8.285157 0 15 6.714843 15 15v4.117187l3.914063-1.273437c7.878906-2.558594 16.339844 1.75 18.902344 9.628906 2.558593 7.878906-1.753907 16.34375-9.632813 18.902344zm0 0"/><path d="m269.617188 190.011719c-10.714844 6.964843-23.476563 11.027343-37.183594 11.027343-13.703125 0-26.464844-4.0625-37.179688-11.027343-14.246094 11.277343-22.789062 28.5625-22.789062 47.027343v48.847657c18.363281 8.09375 38.648437 12.597656 59.96875 12.597656 21.320312 0 41.605468-4.503906 59.972656-12.597656v-48.847657c0-18.464843-8.546875-35.75-22.789062-47.027343zm0 0"/><path d="m232.433594 171.039062c21.179687 0 38.414062-17.230468 38.414062-38.410156 0-21.179687-17.234375-38.410156-38.414062-38.410156-21.179688 0-38.410156 17.230469-38.410156 38.410156 0 21.179688 17.230468 38.410156 38.410156 38.410156zm0 0"/><path d="m142.464844 268.230469v-31.191407c0-26.636718 11.84375-51.632812 31.738281-68.554687-6.445313-10.433594-10.179687-22.714844-10.179687-35.855469 0-37.722656 30.691406-68.410156 68.410156-68.410156 37.722656 0 68.414062 30.6875 68.414062 68.410156 0 13.140625-3.734375 25.421875-10.183594 35.855469 19.898438 16.921875 31.742188 41.917969 31.742188 68.554687v31.191407c35.980469-27.273438 59.269531-70.460938 59.269531-118.988281 0-82.292969-66.949219-149.242188-149.242187-149.242188-82.289063 0-149.238282 66.949219-149.238282 149.242188 0 48.527343 23.285157 91.714843 59.269532 118.988281zm0 0"/></svg>