<?xml version="1.0" encoding="iso-8859-1"?>
<!-- Generator: Adobe Illustrator 18.0.0, SVG Export Plug-In . SVG Version: 6.00 Build 0)  -->
<!DOCTYPE svg PUBLIC "-//W3C//DTD SVG 1.1//EN" "http://www.w3.org/Graphics/SVG/1.1/DTD/svg11.dtd">
<svg version="1.1" id="Capa_1" xmlns="http://www.w3.org/2000/svg" xmlns:xlink="http://www.w3.org/1999/xlink" x="0px" y="0px"
	 viewBox="0 0 297 297" style="enable-background:new 0 0 297 297;" xml:space="preserve">
<g>
	<path d="M263.535,0H33.465C15.013,0,0,15.013,0,33.465v230.07C0,281.987,15.013,297,33.465,297h230.07
		C281.987,297,297,281.987,297,263.535V33.465C297,15.013,281.987,0,263.535,0z M276.085,263.535c0,6.92-5.63,12.549-12.55,12.549
		H33.465c-6.92,0-12.55-5.629-12.55-12.549V33.465c0-6.92,5.63-12.55,12.55-12.55h230.07c6.92,0,12.55,5.63,12.55,12.55V263.535z"/>
	<path d="M242.158,110.922l-56.096,0.008l0.009-56.121c0-2.775-1.101-5.436-3.063-7.398c-1.962-1.961-4.623-3.063-7.397-3.063
		l-54.193,0.008c-5.774,0.001-10.454,4.682-10.456,10.456l-0.009,56.129l-56.104,0.007c-5.774,0.001-10.455,4.682-10.456,10.456
		l-0.01,54.215c0,2.775,1.102,5.435,3.063,7.396c1.961,1.961,4.622,3.063,7.396,3.063l56.1-0.007l-0.009,56.119
		c0,2.775,1.103,5.436,3.063,7.398c1.962,1.962,4.624,3.063,7.397,3.063l54.191-0.01c5.774-0.001,10.454-4.682,10.456-10.456
		l0.008-56.126l56.106-0.009c5.774-0.001,10.454-4.682,10.455-10.457l0.008-54.213c0-2.773-1.103-5.434-3.064-7.396
		C247.593,112.022,244.932,110.922,242.158,110.922z M231.695,165.137l-56.106,0.009c-5.774,0.001-10.454,4.682-10.455,10.456
		l-0.009,56.125l-33.275,0.007l0.008-56.119c0-2.775-1.101-5.435-3.063-7.396c-1.962-1.961-4.622-3.064-7.397-3.064l-56.099,0.008
		l0.005-33.3l56.104-0.007c5.775-0.001,10.455-4.682,10.456-10.456l0.01-56.13l33.277-0.004l-0.009,56.121
		c0,2.774,1.101,5.435,3.063,7.396c1.962,1.961,4.622,3.063,7.396,3.063l56.097-0.008L231.695,165.137z"/>
</g>
<g>
</g>
<g>
</g>
<g>
</g>
<g>
</g>
<g>
</g>
<g>
</g>
<g>
</g>
<g>
</g>
<g>
</g>
<g>
</g>
<g>
</g>
<g>
</g>
<g>
</g>
<g>
</g>
<g>
</g>
</svg>
